<svg width="297" height="72" viewBox="0 0 297 72" fill="none" xmlns="http://www.w3.org/2000/svg">
<rect width="297" height="72" rx="14" fill="url(#paint0_linear_511_47)"/>
<path d="M54.6602 26.8465H27.4514C27.3781 26.8465 27.3048 26.8538 27.2333 26.8676C27.1609 26.8823 27.0912 26.9034 27.0234 26.9319C26.9556 26.9604 26.8914 26.9944 26.83 27.0358C26.7695 27.0772 26.7127 27.1231 26.6605 27.1755C26.6091 27.2279 26.5624 27.2849 26.5221 27.3465C26.4808 27.4071 26.4469 27.4724 26.4185 27.5404C26.3901 27.6084 26.369 27.6792 26.3552 27.7518C26.3406 27.8235 26.3333 27.897 26.3333 27.9705V49.4944C26.3333 49.6608 26.3497 49.8262 26.3818 49.9898C26.4139 50.1535 26.4625 50.3125 26.5257 50.4669C26.589 50.6213 26.6669 50.7674 26.7594 50.9062C26.8511 51.045 26.9556 51.1737 27.0729 51.2913C27.1902 51.409 27.3185 51.5147 27.456 51.6075C27.5944 51.7003 27.7402 51.7785 27.8932 51.8419C28.0463 51.9062 28.2039 51.954 28.3671 51.9871C28.5293 52.0193 28.6943 52.0358 28.8602 52.0358H30.6823C30.7868 52.0358 30.8913 52.0459 30.9939 52.0661C31.0966 52.0873 31.1965 52.1176 31.2936 52.158C31.3908 52.1985 31.4824 52.2481 31.5704 52.3069C31.6575 52.3648 31.7382 52.4319 31.8124 52.5064C31.8866 52.5808 31.9526 52.6626 32.0113 52.75C32.069 52.8382 32.1185 52.931 32.1588 53.0285C32.1992 53.1259 32.2294 53.2261 32.2496 53.3299C32.2707 53.4338 32.2807 53.5376 32.2807 53.6433V59.6148C32.2798 59.829 32.3 60.0422 32.3403 60.2527C32.3807 60.4641 32.4402 60.6691 32.5191 60.8676C32.5979 61.0671 32.695 61.2573 32.8096 61.4384C32.9251 61.6185 33.0561 61.7867 33.2028 61.943C33.3494 62.0983 33.5098 62.238 33.6831 62.363C33.8572 62.488 34.0405 62.5955 34.2348 62.6847C34.4282 62.7748 34.629 62.8446 34.8361 62.8961C35.0432 62.9466 35.2531 62.9779 35.4667 62.988C35.6839 62.9963 35.8993 62.9834 36.1138 62.9476C36.3282 62.9117 36.5372 62.8557 36.7407 62.7775C36.9432 62.6994 37.1366 62.602 37.3209 62.4843C37.5042 62.3676 37.6737 62.2334 37.8305 62.0818C37.9872 61.9301 38.1274 61.7637 38.2502 61.5836C38.374 61.4035 38.4775 61.2132 38.5628 61.0119C38.648 60.8106 38.7122 60.602 38.7553 60.3878C38.7983 60.1737 38.8203 59.9577 38.8203 59.7389V54.2729C38.8203 54.1259 38.8341 53.9797 38.8634 53.8345C38.8918 53.6902 38.934 53.5496 38.9899 53.4126C39.0467 53.2766 39.1155 53.147 39.197 53.0239C39.2786 52.9007 39.3712 52.7876 39.4748 52.6829C39.5783 52.579 39.692 52.4853 39.8139 52.4035C39.9358 52.3216 40.065 52.2518 40.1997 52.1957C40.3354 52.1387 40.4756 52.0965 40.6195 52.068C40.7634 52.0386 40.9092 52.0248 41.0558 52.0248C41.2024 52.0248 41.3482 52.0386 41.4921 52.068C41.636 52.0965 41.7753 52.1387 41.9109 52.1957C42.0466 52.2518 42.1758 52.3216 42.2977 52.4035C42.4196 52.4853 42.5333 52.579 42.6369 52.6829C42.7404 52.7876 42.833 52.9007 42.9146 53.0239C42.9961 53.147 43.0649 53.2766 43.1217 53.4126C43.1776 53.5496 43.2198 53.6902 43.2482 53.8345C43.2775 53.9797 43.2913 54.1259 43.2913 54.2729V59.6148C43.2913 59.8272 43.3105 60.0376 43.349 60.2463C43.3884 60.4549 43.4462 60.658 43.5241 60.8557C43.6011 61.0533 43.6955 61.2426 43.8082 61.4218C43.9209 61.6011 44.0493 61.7693 44.1932 61.9246C44.3371 62.079 44.4947 62.2196 44.6652 62.3455C44.8357 62.4705 45.0162 62.579 45.2069 62.67C45.3975 62.761 45.5946 62.8336 45.799 62.8869C46.0033 62.9402 46.2105 62.9742 46.4213 62.988C46.6385 62.9963 46.8548 62.9834 47.0693 62.9476C47.2838 62.9117 47.4927 62.8557 47.6953 62.7775C47.8988 62.6994 48.0922 62.602 48.2755 62.4843C48.4597 62.3676 48.6293 62.2334 48.786 62.0818C48.9427 61.9301 49.082 61.7637 49.2058 61.5836C49.3286 61.4035 49.4331 61.2132 49.5183 61.0119C49.6026 60.8106 49.6668 60.602 49.7108 60.3878C49.7539 60.1737 49.7749 59.9577 49.7749 59.7389V53.6103C49.7749 53.5046 49.785 53.3998 49.8061 53.2959C49.8263 53.193 49.8565 53.0919 49.8968 52.9944C49.9372 52.897 49.9867 52.8042 50.0444 52.7169C50.1031 52.6286 50.1691 52.5478 50.2433 52.4724C50.3175 52.3979 50.3982 52.3318 50.4853 52.2729C50.5733 52.2141 50.6649 52.1645 50.7621 52.124C50.8592 52.0836 50.9591 52.0533 51.0618 52.033C51.1644 52.0119 51.2689 52.0018 51.3734 52.0018H53.2633C53.4256 52 53.5878 51.9816 53.7473 51.9485C53.9068 51.9145 54.0617 51.8658 54.212 51.8023C54.3623 51.738 54.5053 51.6608 54.64 51.5689C54.7756 51.4779 54.9003 51.374 55.0158 51.2573C55.1313 51.1415 55.2348 51.0156 55.3256 50.8796C55.4163 50.7435 55.4942 50.6001 55.5575 50.4485C55.6207 50.2978 55.6693 50.1415 55.7023 49.9807C55.7362 49.8207 55.7536 49.658 55.7554 49.4944V27.9485C55.7554 27.875 55.749 27.8014 55.7344 27.7288C55.7197 27.6562 55.6986 27.5864 55.6711 27.5183C55.6427 27.4494 55.6079 27.3851 55.5675 27.3235C55.5263 27.2619 55.4805 27.2058 55.4282 27.1534C55.3769 27.1011 55.3201 27.0542 55.2587 27.0137C55.1982 26.9724 55.1331 26.9375 55.0653 26.9099C54.9975 26.8814 54.9278 26.8603 54.8563 26.8455C54.7839 26.8308 54.7115 26.8235 54.6382 26.8235L54.6602 26.8465Z" fill="white"/>
<path d="M21.7506 26.8352C21.538 26.8352 21.3281 26.8554 21.12 26.8977C20.912 26.9391 20.7103 27.0006 20.5142 27.0824C20.318 27.1642 20.132 27.2644 19.9551 27.383C19.7791 27.5016 19.616 27.6358 19.4657 27.7865C19.3163 27.9372 19.1815 28.1017 19.0642 28.2791C18.946 28.4565 18.847 28.644 18.7654 28.8407C18.6848 29.0383 18.6233 29.2415 18.5821 29.451C18.5399 29.6597 18.5198 29.8711 18.5198 30.0852V43.2865C18.5198 43.4997 18.5409 43.7111 18.5821 43.9207C18.6233 44.1293 18.6848 44.3324 18.7663 44.5291C18.847 44.7268 18.9469 44.9133 19.0651 45.0907C19.1824 45.2681 19.3163 45.4326 19.4666 45.5834C19.6169 45.7341 19.78 45.8683 19.956 45.9869C20.132 46.1054 20.319 46.2056 20.5142 46.2874C20.7103 46.3683 20.912 46.4299 21.12 46.4722C21.3281 46.5135 21.538 46.5347 21.7506 46.5347C21.9623 46.5347 22.1722 46.5135 22.3803 46.4722C22.5883 46.4299 22.79 46.3683 22.9861 46.2874C23.1823 46.2056 23.3683 46.1054 23.5443 45.9869C23.7203 45.8683 23.8834 45.7341 24.0337 45.5834C24.1841 45.4326 24.3179 45.2681 24.4352 45.0907C24.5534 44.9133 24.6533 44.7268 24.734 44.5291C24.8156 44.3324 24.877 44.1293 24.9182 43.9207C24.9595 43.7111 24.9805 43.4997 24.9805 43.2865V30.0852C24.9805 29.872 24.9585 29.6606 24.9173 29.4519C24.8751 29.2424 24.8137 29.0392 24.7322 28.8426C24.6506 28.6459 24.5507 28.4593 24.4334 28.2819C24.3151 28.1045 24.1813 27.9409 24.031 27.7902C23.8816 27.6394 23.7184 27.5043 23.5425 27.3858C23.3665 27.2672 23.1804 27.167 22.9852 27.0852C22.7891 27.0034 22.5874 26.9409 22.3794 26.8995C22.1722 26.8573 21.9623 26.8352 21.7506 26.8352Z" fill="white"/>
<mask id="mask0_511_47" style="mask-type:luminance" maskUnits="userSpaceOnUse" x="56" y="26" width="8" height="21">
<path d="M56.9551 26.8235H63.5249V46.5882H56.9551V26.8235Z" fill="white"/>
</mask>
<g mask="url(#mask0_511_47)">
<path d="M60.361 26.8352C60.1493 26.8352 59.9394 26.8573 59.7323 26.8995C59.5242 26.9409 59.3226 27.0034 59.1264 27.0852C58.9312 27.167 58.7451 27.2672 58.5692 27.3858C58.3932 27.5043 58.23 27.6394 58.0806 27.7902C57.9303 27.9409 57.7965 28.1045 57.6783 28.2819C57.561 28.4593 57.4611 28.6459 57.3795 28.8426C57.2979 29.0392 57.2365 29.2424 57.1943 29.4519C57.1531 29.6606 57.1311 29.872 57.1311 30.0852V43.2865C57.1311 43.4997 57.1513 43.7111 57.1925 43.9207C57.2338 44.1302 57.2952 44.3334 57.3767 44.5301C57.4574 44.7277 57.5573 44.9142 57.6755 45.0926C57.7929 45.2699 57.9267 45.4335 58.077 45.5843C58.2273 45.7359 58.3904 45.8701 58.5664 45.9887C58.7433 46.1073 58.9294 46.2074 59.1246 46.2892C59.3207 46.371 59.5233 46.4326 59.7314 46.474C59.9394 46.5154 60.1493 46.5365 60.361 46.5365C60.5737 46.5365 60.7836 46.5154 60.9916 46.474C61.1997 46.4326 61.4013 46.371 61.5975 46.2892C61.7936 46.2074 61.9797 46.1073 62.1565 45.9887C62.3325 45.8701 62.4957 45.7359 62.646 45.5843C62.7954 45.4335 62.9301 45.2699 63.0474 45.0926C63.1657 44.9142 63.2647 44.7277 63.3462 44.5301C63.4269 44.3334 63.4883 44.1302 63.5295 43.9207C63.5717 43.7111 63.5919 43.4997 63.5919 43.2865V30.0852C63.5919 29.8711 63.5717 29.6597 63.5295 29.451C63.4883 29.2415 63.4269 29.0383 63.3462 28.8407C63.2647 28.644 63.1657 28.4565 63.0474 28.2791C62.9301 28.1017 62.7954 27.9372 62.646 27.7865C62.4957 27.6358 62.3325 27.5016 62.1565 27.383C61.9797 27.2644 61.7936 27.1642 61.5975 27.0824C61.4013 27.0006 61.1997 26.9391 60.9916 26.8977C60.7836 26.8554 60.5737 26.8352 60.361 26.8352Z" fill="white"/>
</g>
<path d="M27.6411 25.2382H54.3806C54.464 25.2401 54.5465 25.2327 54.628 25.2153C54.7096 25.1987 54.7884 25.1721 54.8636 25.1381C54.9397 25.1031 55.0112 25.0609 55.0771 25.0103C55.1431 24.9588 55.2036 24.9018 55.2568 24.8375C55.3109 24.7732 55.3567 24.7042 55.3943 24.6298C55.4328 24.5553 55.4621 24.4772 55.4832 24.3963C55.5043 24.3155 55.5162 24.2327 55.5189 24.1491C55.5208 24.0655 55.5143 23.9827 55.4988 23.9C55.3897 23.3853 55.255 22.878 55.0927 22.378C54.9305 21.877 54.7417 21.3871 54.5281 20.9074C54.3137 20.4267 54.0754 19.9598 53.8114 19.5048C53.5483 19.0498 53.2615 18.6105 52.9517 18.1868C52.641 17.7631 52.3101 17.3568 51.9572 16.968C51.6043 16.5792 51.2313 16.2107 50.8399 15.8623C50.4476 15.514 50.0389 15.1868 49.6127 14.8825C49.1856 14.5774 48.7447 14.2962 48.2883 14.0388L50.5237 9.88898C50.5585 9.82097 50.5805 9.74928 50.5879 9.67391C50.5952 9.59854 50.5888 9.52409 50.5677 9.45056C50.5476 9.37703 50.5136 9.31086 50.4678 9.25019C50.4211 9.19045 50.3652 9.14082 50.3001 9.1013C50.2332 9.06361 50.1608 9.03972 50.0838 9.03053C50.0077 9.02133 49.9316 9.02685 49.8574 9.04799C49.7831 9.06913 49.7153 9.10406 49.6539 9.15185C49.5934 9.20056 49.5448 9.25847 49.5073 9.32648L47.2709 13.4984C46.786 13.275 46.2911 13.0783 45.7852 12.9083C45.2792 12.7382 44.766 12.5967 44.2444 12.4818C43.7238 12.3678 43.1977 12.2814 42.668 12.2245C42.1373 12.1666 41.6057 12.1381 41.0723 12.1381C40.5388 12.1381 40.0072 12.1666 39.4775 12.2245C38.9468 12.2814 38.4216 12.3678 37.9001 12.4818C37.3795 12.5967 36.8662 12.7382 36.3603 12.9083C35.8543 13.0783 35.3585 13.275 34.8736 13.4984L32.5263 9.32648C32.4897 9.25939 32.4411 9.2024 32.3815 9.15461C32.321 9.10681 32.255 9.07189 32.1817 9.05075C32.1084 9.02961 32.0332 9.02409 31.9572 9.03236C31.882 9.04156 31.8105 9.06453 31.7436 9.1013C31.6767 9.13898 31.6199 9.18769 31.5722 9.24744C31.5255 9.3081 31.4906 9.37519 31.4696 9.44872C31.4485 9.52225 31.443 9.59762 31.4512 9.67391C31.4604 9.75019 31.4833 9.82189 31.52 9.88898L33.7563 14.0388C33.2999 14.2962 32.859 14.5774 32.4328 14.8825C32.0067 15.1868 31.5979 15.514 31.2065 15.8623C30.8151 16.2116 30.443 16.5802 30.0901 16.968C29.7382 17.3568 29.4073 17.7631 29.0975 18.1868C28.7877 18.6114 28.5018 19.0507 28.2387 19.5048C27.9757 19.9598 27.7374 20.4276 27.5238 20.9074C27.3102 21.3871 27.1233 21.878 26.961 22.378C26.7997 22.878 26.665 23.3853 26.5568 23.9C26.5413 23.9827 26.5348 24.0655 26.5367 24.1491C26.5394 24.2327 26.5513 24.3155 26.5724 24.3963C26.5935 24.4772 26.6228 24.5553 26.6613 24.6298C26.6989 24.7042 26.7447 24.7732 26.7988 24.8375C26.852 24.9018 26.9125 24.9588 26.9785 25.0103C27.0445 25.0609 27.1159 25.1031 27.192 25.1381C27.2672 25.1721 27.346 25.1987 27.4276 25.2153C27.5091 25.2327 27.5916 25.2401 27.675 25.2382H27.6411ZM48.9592 19.0535C48.9592 19.1362 48.9509 19.218 48.9344 19.2989C48.9188 19.3798 48.895 19.4588 48.8629 19.5351C48.8309 19.6105 48.7924 19.6831 48.7465 19.752C48.7007 19.82 48.6485 19.8835 48.5898 19.9414C48.5311 19.9993 48.4679 20.0507 48.3992 20.0967C48.3304 20.1417 48.258 20.1794 48.1819 20.2107C48.1059 20.241 48.028 20.2649 47.9473 20.2796C47.8666 20.2952 47.7851 20.3017 47.7026 20.3007C47.621 20.2998 47.5394 20.2906 47.4597 20.2732C47.379 20.2566 47.3011 20.2318 47.226 20.1987C47.1508 20.1656 47.0793 20.1261 47.0115 20.0792C46.9437 20.0314 46.8823 19.9791 46.8245 19.9193C46.7677 19.8596 46.7173 19.7952 46.6733 19.7254C46.6284 19.6564 46.5917 19.5829 46.5624 19.5057C46.5321 19.4285 46.5101 19.3495 46.4964 19.2686C46.4817 19.1868 46.4762 19.105 46.4781 19.0223C46.4799 18.9405 46.49 18.8587 46.5083 18.7778C46.5257 18.6978 46.5514 18.6197 46.5853 18.5443C46.6183 18.4689 46.6595 18.3973 46.7063 18.3302C46.754 18.2631 46.808 18.2006 46.8676 18.1445C46.9272 18.0875 46.9923 18.037 47.0619 17.9938C47.1316 17.9496 47.2049 17.9138 47.2819 17.8844C47.3589 17.8559 47.4377 17.8338 47.5184 17.821C47.599 17.8081 47.6806 17.8026 47.7631 17.8053C47.8446 17.8063 47.9244 17.8145 48.0041 17.8311C48.0839 17.8476 48.1609 17.8715 48.236 17.9037C48.3112 17.9349 48.3827 17.9735 48.4496 18.0195C48.5174 18.0645 48.5797 18.1169 48.6375 18.1739C48.6943 18.2318 48.7456 18.2952 48.7914 18.3632C48.8364 18.4303 48.8748 18.502 48.906 18.5774C48.9381 18.6528 48.9619 18.7309 48.9784 18.8109C48.9949 18.8908 49.0032 18.9717 49.0041 19.0535H48.9592ZM34.3484 17.8053C34.4309 17.8044 34.5125 17.8118 34.5941 17.8274C34.6747 17.843 34.7536 17.8669 34.8305 17.8982C34.9066 17.9294 34.979 17.9671 35.0487 18.0131C35.1174 18.059 35.1807 18.1105 35.2393 18.1693C35.298 18.2272 35.3511 18.2906 35.397 18.3596C35.4428 18.4285 35.4822 18.5011 35.5143 18.5774C35.5464 18.6546 35.5702 18.7337 35.5867 18.8145C35.6032 18.8963 35.6114 18.9781 35.6114 19.0609C35.6114 19.1445 35.6041 19.2263 35.5885 19.3081C35.572 19.389 35.5482 19.468 35.517 19.5452C35.4859 19.6215 35.4474 19.695 35.4016 19.764C35.3557 19.8329 35.3035 19.8963 35.2448 19.9552C35.1862 20.014 35.1229 20.0664 35.0542 20.1123C34.9854 20.1583 34.913 20.1978 34.837 20.2291C34.7609 20.2612 34.6821 20.2851 34.6014 20.3007C34.5198 20.3164 34.4383 20.3246 34.3558 20.3246C34.2733 20.3237 34.1917 20.3155 34.1111 20.2989C34.0304 20.2824 33.9516 20.2585 33.8755 20.2263C33.7994 20.1941 33.727 20.1546 33.6583 20.1087C33.5905 20.0618 33.5272 20.0094 33.4695 19.9506C33.4108 19.8908 33.3595 19.8274 33.3137 19.7575C33.2687 19.6886 33.2302 19.6151 33.1991 19.5379C33.1679 19.4616 33.145 19.3816 33.1294 19.3007C33.1138 19.2189 33.1065 19.1371 33.1074 19.0535C33.1074 18.9717 33.1157 18.8908 33.1313 18.8099C33.1478 18.73 33.1707 18.6518 33.2018 18.5765C33.233 18.5002 33.2715 18.4285 33.3164 18.3605C33.3622 18.2925 33.4136 18.2291 33.4713 18.1712C33.529 18.1132 33.5914 18.0618 33.6592 18.0158C33.727 17.9699 33.7985 17.9322 33.8737 17.9009C33.9488 17.8688 34.0267 17.8458 34.1065 17.8292C34.1862 17.8136 34.2669 17.8053 34.3484 17.8053Z" fill="white"/>
<path d="M28.1553 51.8776C28.3908 51.9603 28.6328 52.0007 28.8821 52.0016H30.7042C30.8096 52.0016 30.9132 52.0118 31.0158 52.0329C31.1194 52.0531 31.2193 52.0834 31.3155 52.1239C31.4127 52.1643 31.5053 52.214 31.5923 52.2728C31.6794 52.3316 31.7601 52.3978 31.8343 52.4722C31.9085 52.5476 31.9755 52.6285 32.0332 52.7167C32.0919 52.804 32.1414 52.8969 32.1808 52.9943C32.2211 53.0917 32.2513 53.1928 32.2724 53.2958C32.2926 53.3996 32.3027 53.5044 32.3027 53.6101V59.6147C32.3027 59.8279 32.3219 60.0402 32.3613 60.2498C32.4017 60.4603 32.4603 60.6643 32.5382 60.8629C32.617 61.0614 32.7133 61.2507 32.8269 61.4318C32.9415 61.6119 33.0707 61.7792 33.2165 61.9355C33.3631 62.0908 33.5217 62.2305 33.694 62.3555C33.8663 62.4805 34.0487 62.588 34.2412 62.679C34.4336 62.7691 34.6335 62.8399 34.8388 62.8923C35.045 62.9437 35.254 62.9759 35.4666 62.9879C35.6838 62.9961 35.8992 62.9833 36.1137 62.9474C36.3282 62.9116 36.5371 62.8555 36.7406 62.7774C36.9432 62.6993 37.1365 62.6018 37.3208 62.4842C37.5041 62.3675 37.6736 62.2333 37.8304 62.0816C37.9871 61.93 38.1273 61.7636 38.2502 61.5834C38.3739 61.4033 38.4775 61.213 38.5627 61.0118C38.6479 60.8105 38.7121 60.6018 38.7552 60.3877C38.7983 60.1735 38.8203 59.9575 38.8203 59.7388V54.2728C38.8203 54.1257 38.834 53.9796 38.8633 53.8344C38.8917 53.6901 38.9339 53.5494 38.9898 53.4125C39.0466 53.2765 39.1154 53.1469 39.197 53.0237C39.2785 52.9005 39.3711 52.7875 39.4747 52.6827C39.5782 52.5789 39.6919 52.4851 39.8138 52.4033C39.9357 52.3215 40.0649 52.2516 40.1997 52.1956C40.3353 52.1386 40.4755 52.0963 40.6194 52.0678C40.7633 52.0384 40.9091 52.0246 41.0557 52.0246C41.2024 52.0246 41.3481 52.0384 41.492 52.0678C41.6359 52.0963 41.7752 52.1386 41.9109 52.1956C42.0465 52.2516 42.1757 52.3215 42.2976 52.4033C42.4195 52.4851 42.5332 52.5789 42.6368 52.6827C42.7403 52.7875 42.8329 52.9005 42.9145 53.0237C42.9961 53.1469 43.0648 53.2765 43.1216 53.4125C43.1775 53.5494 43.2197 53.6901 43.2481 53.8344C43.2774 53.9796 43.2912 54.1257 43.2912 54.2728V59.6147C43.2912 59.827 43.3104 60.0375 43.3489 60.2461C43.3883 60.4548 43.4461 60.6579 43.524 60.8555C43.601 61.0531 43.6954 61.2425 43.8081 61.4217C43.9209 61.6009 44.0492 61.7691 44.1931 61.9244C44.337 62.0789 44.4946 62.2195 44.6651 62.3454C44.8356 62.4704 45.0161 62.5789 45.2068 62.6698C45.3974 62.7608 45.5945 62.8334 45.7989 62.8868C46.0033 62.9401 46.2104 62.9741 46.4212 62.9879C46.6384 62.9961 46.8547 62.9833 47.0692 62.9474C47.2837 62.9116 47.4927 62.8555 47.6952 62.7774C47.8987 62.6993 48.0921 62.6018 48.2754 62.4842C48.4596 62.3675 48.6292 62.2333 48.7859 62.0816C48.9426 61.93 49.0819 61.7636 49.2057 61.5834C49.3285 61.4033 49.433 61.213 49.5182 61.0118C49.6025 60.8105 49.6667 60.6018 49.7107 60.3877C49.7538 60.1735 49.7749 59.9575 49.7749 59.7388V53.6101C49.7749 53.5044 49.7849 53.3996 49.806 53.2958C49.8262 53.1928 49.8564 53.0917 49.8968 52.9943C49.9371 52.8969 49.9866 52.804 50.0443 52.7167C50.103 52.6285 50.169 52.5476 50.2432 52.4722C50.3175 52.3978 50.3981 52.3316 50.4852 52.2728C50.5732 52.214 50.6648 52.1643 50.762 52.1239C50.8591 52.0834 50.959 52.0531 51.0617 52.0329C51.1644 52.0118 51.2688 52.0016 51.3733 52.0016H53.2633C53.5116 52.0007 53.7545 51.9603 53.9892 51.8776H28.1553Z" fill="white"/>
<path d="M121.972 45.56H107.38L104.692 53H100.084L112.18 19.736H117.22L129.268 53H124.66L121.972 45.56ZM120.724 42.008L114.676 25.112L108.628 42.008H120.724ZM147.356 26.216C150.556 26.216 153.148 27.192 155.132 29.144C157.116 31.064 158.108 33.848 158.108 37.496V53H153.788V38.12C153.788 35.496 153.132 33.496 151.82 32.12C150.508 30.712 148.716 30.008 146.444 30.008C144.14 30.008 142.3 30.728 140.924 32.168C139.58 33.608 138.908 35.704 138.908 38.456V53H134.54V26.696H138.908V30.44C139.772 29.096 140.94 28.056 142.412 27.32C143.916 26.584 145.564 26.216 147.356 26.216ZM163.611 39.752C163.611 37.064 164.155 34.712 165.243 32.696C166.331 30.648 167.819 29.064 169.707 27.944C171.627 26.824 173.771 26.264 176.139 26.264C178.187 26.264 180.091 26.744 181.851 27.704C183.611 28.632 184.955 29.864 185.883 31.4V17.48H190.299V53H185.883V48.056C185.019 49.624 183.739 50.92 182.043 51.944C180.347 52.936 178.363 53.432 176.091 53.432C173.755 53.432 171.627 52.856 169.707 51.704C167.819 50.552 166.331 48.936 165.243 46.856C164.155 44.776 163.611 42.408 163.611 39.752ZM185.883 39.8C185.883 37.816 185.483 36.088 184.683 34.616C183.883 33.144 182.795 32.024 181.419 31.256C180.075 30.456 178.587 30.056 176.955 30.056C175.323 30.056 173.835 30.44 172.491 31.208C171.147 31.976 170.075 33.096 169.275 34.568C168.475 36.04 168.075 37.768 168.075 39.752C168.075 41.768 168.475 43.528 169.275 45.032C170.075 46.504 171.147 47.64 172.491 48.44C173.835 49.208 175.323 49.592 176.955 49.592C178.587 49.592 180.075 49.208 181.419 48.44C182.795 47.64 183.883 46.504 184.683 45.032C185.483 43.528 185.883 41.784 185.883 39.8ZM202.048 30.968C202.816 29.464 203.904 28.296 205.312 27.464C206.752 26.632 208.496 26.216 210.544 26.216V30.728H209.392C204.496 30.728 202.048 33.384 202.048 38.696V53H197.68V26.696H202.048V30.968ZM227.059 53.432C224.595 53.432 222.355 52.872 220.339 51.752C218.355 50.632 216.787 49.048 215.635 47C214.515 44.92 213.955 42.52 213.955 39.8C213.955 37.112 214.531 34.744 215.683 32.696C216.867 30.616 218.467 29.032 220.483 27.944C222.499 26.824 224.755 26.264 227.251 26.264C229.747 26.264 232.003 26.824 234.019 27.944C236.035 29.032 237.619 30.6 238.771 32.648C239.955 34.696 240.547 37.08 240.547 39.8C240.547 42.52 239.939 44.92 238.723 47C237.539 49.048 235.923 50.632 233.875 51.752C231.827 52.872 229.555 53.432 227.059 53.432ZM227.059 49.592C228.627 49.592 230.099 49.224 231.475 48.488C232.851 47.752 233.955 46.648 234.787 45.176C235.651 43.704 236.083 41.912 236.083 39.8C236.083 37.688 235.667 35.896 234.835 34.424C234.003 32.952 232.915 31.864 231.571 31.16C230.227 30.424 228.771 30.056 227.203 30.056C225.603 30.056 224.131 30.424 222.787 31.16C221.475 31.864 220.419 32.952 219.619 34.424C218.819 35.896 218.419 37.688 218.419 39.8C218.419 41.944 218.803 43.752 219.571 45.224C220.371 46.696 221.427 47.8 222.739 48.536C224.051 49.24 225.491 49.592 227.059 49.592ZM248.546 22.424C247.714 22.424 247.01 22.136 246.434 21.56C245.858 20.984 245.57 20.28 245.57 19.448C245.57 18.616 245.858 17.912 246.434 17.336C247.01 16.76 247.714 16.472 248.546 16.472C249.346 16.472 250.018 16.76 250.562 17.336C251.138 17.912 251.426 18.616 251.426 19.448C251.426 20.28 251.138 20.984 250.562 21.56C250.018 22.136 249.346 22.424 248.546 22.424ZM250.658 26.696V53H246.29V26.696H250.658ZM256.47 39.752C256.47 37.064 257.014 34.712 258.102 32.696C259.19 30.648 260.678 29.064 262.566 27.944C264.486 26.824 266.63 26.264 268.998 26.264C271.046 26.264 272.95 26.744 274.71 27.704C276.47 28.632 277.814 29.864 278.742 31.4V17.48H283.158V53H278.742V48.056C277.878 49.624 276.598 50.92 274.902 51.944C273.206 52.936 271.222 53.432 268.95 53.432C266.614 53.432 264.486 52.856 262.566 51.704C260.678 50.552 259.19 48.936 258.102 46.856C257.014 44.776 256.47 42.408 256.47 39.752ZM278.742 39.8C278.742 37.816 278.342 36.088 277.542 34.616C276.742 33.144 275.654 32.024 274.278 31.256C272.934 30.456 271.446 30.056 269.814 30.056C268.182 30.056 266.694 30.44 265.35 31.208C264.006 31.976 262.934 33.096 262.134 34.568C261.334 36.04 260.934 37.768 260.934 39.752C260.934 41.768 261.334 43.528 262.134 45.032C262.934 46.504 264.006 47.64 265.35 48.44C266.694 49.208 268.182 49.592 269.814 49.592C271.446 49.592 272.934 49.208 274.278 48.44C275.654 47.64 276.742 46.504 277.542 45.032C278.342 43.528 278.742 41.784 278.742 39.8Z" fill="white"/>
<defs>
<linearGradient id="paint0_linear_511_47" x1="-3.22703e-07" y1="36" x2="297" y2="36" gradientUnits="userSpaceOnUse">
<stop stop-color="#0B84FA"/>
<stop offset="1" stop-color="#4140FF"/>
</linearGradient>
</defs>
</svg>
