<svg width="196" height="72" viewBox="0 0 196 72" fill="none" xmlns="http://www.w3.org/2000/svg">
<rect width="196" height="72" rx="14" fill="url(#paint0_linear_511_36)"/>
<g clip-path="url(#clip0_511_36)">
<path d="M53.7162 42.7393C54.6832 40.923 53.4322 38.2977 51.2005 38.2977H44.309L53.8349 21.8026C54.4422 20.7342 54.0851 19.3727 53.0186 18.7655C51.9493 18.1573 50.5905 18.518 49.9805 19.5818L48.9907 21.2876L48.0255 19.5846C47.4045 18.5153 46.0522 18.1555 44.9883 18.7673C43.919 19.3882 43.562 20.7388 44.1711 21.8053L46.4366 25.7355L39.1853 38.2996H33.5201C32.291 38.2996 31.2993 39.2922 31.2993 40.5203C31.2993 41.7494 32.2892 42.7411 33.5201 42.7411H53.7162V42.7393Z" fill="white"/>
<mask id="mask0_511_36" style="mask-type:luminance" maskUnits="userSpaceOnUse" x="22" y="9" width="54" height="54">
<path d="M22 9H76V63H22V9Z" fill="white"/>
</mask>
<g mask="url(#mask0_511_36)">
<path d="M49 63C63.9154 63 76 50.9154 76 36C76 21.0846 63.9154 9 49 9C34.0846 9 22 21.0846 22 36C22 50.9154 34.0846 63 49 63ZM49 12.4828C61.922 12.4828 72.5172 22.9456 72.5172 36C72.5172 48.922 62.0544 59.5172 49 59.5172C36.078 59.5172 25.4828 49.0544 25.4828 36C25.4828 23.0762 35.9474 12.4828 49 12.4828Z" fill="white"/>
</g>
<path d="M36.0196 43.7648L34.4316 46.5079C33.8234 47.5763 34.1796 48.9378 35.248 49.5451C36.3163 50.1532 37.6778 49.7925 38.2851 48.7287L40.4209 45.0277L40.4182 45.0296C39.264 43.6343 37.8039 43.2096 36.0196 43.7648Z" fill="white"/>
<path d="M52.2647 26.9845C50.9461 28.073 49.6165 31.2955 51.4793 34.5061C53.2956 37.6647 56.0405 42.4012 59.6876 48.7238C60.3086 49.7922 61.6582 50.1502 62.7248 49.5402C63.7941 48.9193 64.152 47.5696 63.5421 46.5031L61.377 42.75H64.5903C65.8185 42.75 66.8111 41.7574 66.8111 40.5292C66.8111 39.3011 65.8213 38.3085 64.5903 38.3085H58.8101V38.3066C55.9036 33.2661 53.7248 29.4884 52.2647 26.9845Z" fill="white"/>
</g>
<path d="M104.064 19.544V53H99.696V19.544H104.064ZM126.677 53.336C123.573 53.336 120.741 52.616 118.181 51.176C115.621 49.704 113.589 47.672 112.085 45.08C110.613 42.456 109.877 39.512 109.877 36.248C109.877 32.984 110.613 30.056 112.085 27.464C113.589 24.84 115.621 22.808 118.181 21.368C120.741 19.896 123.573 19.16 126.677 19.16C129.813 19.16 132.661 19.896 135.221 21.368C137.781 22.808 139.797 24.824 141.269 27.416C142.741 30.008 143.477 32.952 143.477 36.248C143.477 39.544 142.741 42.488 141.269 45.08C139.797 47.672 137.781 49.704 135.221 51.176C132.661 52.616 129.813 53.336 126.677 53.336ZM126.677 49.544C129.013 49.544 131.109 49 132.965 47.912C134.853 46.824 136.325 45.272 137.381 43.256C138.469 41.24 139.013 38.904 139.013 36.248C139.013 33.56 138.469 31.224 137.381 29.24C136.325 27.224 134.869 25.672 133.013 24.584C131.157 23.496 129.045 22.952 126.677 22.952C124.309 22.952 122.197 23.496 120.341 24.584C118.485 25.672 117.013 27.224 115.925 29.24C114.869 31.224 114.341 33.56 114.341 36.248C114.341 38.904 114.869 41.24 115.925 43.256C117.013 45.272 118.485 46.824 120.341 47.912C122.229 49 124.341 49.544 126.677 49.544ZM159.851 53.336C157.643 53.336 155.659 52.952 153.899 52.184C152.171 51.384 150.811 50.296 149.819 48.92C148.827 47.512 148.315 45.896 148.283 44.072H152.939C153.099 45.64 153.739 46.968 154.859 48.056C156.011 49.112 157.675 49.64 159.851 49.64C161.931 49.64 163.563 49.128 164.747 48.104C165.963 47.048 166.571 45.704 166.571 44.072C166.571 42.792 166.219 41.752 165.515 40.952C164.811 40.152 163.931 39.544 162.875 39.128C161.819 38.712 160.395 38.264 158.603 37.784C156.395 37.208 154.619 36.632 153.275 36.056C151.963 35.48 150.827 34.584 149.867 33.368C148.939 32.12 148.475 30.456 148.475 28.376C148.475 26.552 148.939 24.936 149.867 23.528C150.795 22.12 152.091 21.032 153.755 20.264C155.451 19.496 157.387 19.112 159.563 19.112C162.699 19.112 165.259 19.896 167.243 21.464C169.259 23.032 170.395 25.112 170.651 27.704H165.851C165.691 26.424 165.019 25.304 163.835 24.344C162.651 23.352 161.083 22.856 159.131 22.856C157.307 22.856 155.819 23.336 154.667 24.296C153.515 25.224 152.939 26.536 152.939 28.232C152.939 29.448 153.275 30.44 153.947 31.208C154.651 31.976 155.499 32.568 156.491 32.984C157.515 33.368 158.939 33.816 160.763 34.328C162.971 34.936 164.747 35.544 166.091 36.152C167.435 36.728 168.587 37.64 169.547 38.888C170.507 40.104 170.987 41.768 170.987 43.88C170.987 45.512 170.555 47.048 169.691 48.488C168.827 49.928 167.547 51.096 165.851 51.992C164.155 52.888 162.155 53.336 159.851 53.336Z" fill="white"/>
<defs>
<linearGradient id="paint0_linear_511_36" x1="196" y1="29.3538" x2="-0.000946103" y2="30.2566" gradientUnits="userSpaceOnUse">
<stop stop-color="#433FFF"/>
<stop offset="1" stop-color="#0986FA"/>
</linearGradient>
<clipPath id="clip0_511_36">
<rect width="54" height="54" fill="white" transform="translate(22 9)"/>
</clipPath>
</defs>
</svg>
