<svg width="233" height="72" viewBox="0 0 233 72" fill="none" xmlns="http://www.w3.org/2000/svg">
<rect width="233" height="72" rx="14" fill="url(#paint0_linear_511_59)"/>
<mask id="mask0_511_59" style="mask-type:luminance" maskUnits="userSpaceOnUse" x="15" y="-1" width="73" height="74">
<path d="M15.5352 18.6455L67.5555 -0.5631L87.4647 53.3546L35.4444 72.5632L15.5352 18.6455Z" fill="white"/>
</mask>
<g mask="url(#mask0_511_59)">
<path d="M61.7959 12.0718C55.3047 9.08229 48.0377 8.7985 41.3333 11.2741C34.6289 13.7497 29.2902 18.6882 26.2996 25.1789C23.3101 31.6701 23.0263 38.9371 25.5019 45.6415C27.9775 52.3459 32.916 57.6846 39.4067 60.6753C45.8979 63.6647 53.1649 63.9485 59.8693 61.4729C66.5737 58.9973 71.9124 54.0588 74.903 47.5682C77.8925 41.0769 78.1763 33.8099 75.7007 27.1055C73.2251 20.4011 68.2866 15.0624 61.7959 12.0718ZM28.2777 44.6165C27.2455 41.8212 26.7759 38.9532 26.8066 36.1368L35.8344 32.8033C36.3631 35.4787 37.1391 38.2307 38.1509 40.9708C39.1286 43.6185 40.28 46.1334 41.5635 48.4443L32.4798 51.7985C30.7126 49.727 29.2745 47.316 28.2777 44.6165ZM40.9267 39.9459C39.9086 37.1887 39.1435 34.427 38.6467 31.7648L46.2814 28.9457L52.0513 44.5717L44.3733 47.4068C43.0758 45.1233 41.9106 42.6105 40.9267 39.9459ZM51.1913 17.7702C52.5552 19.1205 53.8666 20.7285 55.0915 22.5383L48.0322 25.1449L43.8411 13.7946C45.9779 13.7899 48.5708 15.1745 51.1913 17.7702ZM41.0653 14.8196L45.2564 26.1699L38.1972 28.7765C37.952 26.605 37.9037 24.5306 38.0627 22.6179C38.3674 18.9421 39.4382 16.2047 41.0653 14.8196ZM53.0763 47.3475L57.3615 58.9524C55.2247 58.9572 52.6318 57.5725 50.0113 54.9769C48.5894 53.5688 47.2257 51.8818 45.9551 49.977L53.0763 47.3475ZM60.1373 57.9274L55.8521 46.3225L62.9733 43.693C63.2456 45.9664 63.3055 48.1349 63.1399 50.1291C62.8352 53.8049 61.7644 56.5424 60.1373 57.9274ZM54.8272 43.5467L49.0572 27.9207L56.692 25.1016C58.0445 27.4477 59.2578 30.044 60.2759 32.8012C61.2598 35.4658 62.0073 38.1328 62.5052 40.7116L54.8272 43.5467ZM59.5043 24.0631L68.532 20.7296C70.3858 22.8502 71.8927 25.3352 72.9249 28.1305C73.9217 30.8299 74.3955 33.597 74.3987 36.3199L65.315 39.6741C64.7886 37.0836 64.0293 34.4238 63.0517 31.7762C62.0399 29.036 60.8411 26.4401 59.5043 24.0631ZM66.2218 18.4283L57.942 21.4857C56.4933 19.2657 54.9222 17.2993 53.2739 15.6671C51.9963 14.4016 50.7119 13.3788 49.4446 12.6034C55.612 12.3073 61.6316 14.4456 66.2218 18.4283ZM36.0324 17.5558C35.5731 18.9688 35.2617 20.5809 35.1131 22.373C34.9211 24.6847 35.005 27.2003 35.3467 29.829L27.0668 32.8864C27.9671 26.8763 31.1526 21.339 36.0324 17.5558ZM34.7492 54.1148L43.1089 51.028C44.599 53.3446 46.2236 55.3906 47.9287 57.0799C49.2063 58.3454 50.4907 59.3683 51.758 60.1437C45.4863 60.4445 39.3682 58.2278 34.7492 54.1148ZM65.1702 55.1912C65.6295 53.7782 65.9409 52.1661 66.0895 50.374C66.2875 47.982 66.1926 45.3711 65.8196 42.642L74.1792 39.5552C73.3417 45.683 70.1324 51.3438 65.1702 55.1912Z" fill="white"/>
<path d="M61.7959 12.0718C55.3047 9.08229 48.0377 8.7985 41.3333 11.2741C34.6289 13.7497 29.2902 18.6882 26.2996 25.1789C23.3101 31.6701 23.0263 38.9371 25.5019 45.6415C27.9775 52.3459 32.916 57.6846 39.4067 60.6753C45.8979 63.6647 53.1649 63.9485 59.8693 61.4729C66.5737 58.9973 71.9124 54.0588 74.903 47.5682C77.8925 41.0769 78.1763 33.8099 75.7007 27.1055C73.2251 20.4011 68.2866 15.0624 61.7959 12.0718ZM28.2777 44.6165C27.2455 41.8212 26.7759 38.9532 26.8066 36.1368L35.8344 32.8033C36.3631 35.4787 37.1391 38.2307 38.1509 40.9708C39.1286 43.6185 40.28 46.1334 41.5635 48.4443L32.4798 51.7985C30.7126 49.727 29.2745 47.316 28.2777 44.6165ZM40.9267 39.9459C39.9086 37.1887 39.1435 34.427 38.6467 31.7648L46.2814 28.9457L52.0513 44.5717L44.3733 47.4068C43.0758 45.1233 41.9106 42.6105 40.9267 39.9459ZM51.1913 17.7702C52.5552 19.1205 53.8666 20.7285 55.0915 22.5383L48.0322 25.1449L43.8411 13.7946C45.9779 13.7899 48.5708 15.1745 51.1913 17.7702ZM41.0653 14.8196L45.2564 26.1699L38.1972 28.7765C37.952 26.605 37.9037 24.5306 38.0627 22.6179C38.3674 18.9421 39.4382 16.2047 41.0653 14.8196ZM53.0763 47.3475L57.3615 58.9524C55.2247 58.9572 52.6318 57.5725 50.0113 54.9769C48.5894 53.5688 47.2257 51.8818 45.9551 49.977L53.0763 47.3475ZM60.1373 57.9274L55.8521 46.3225L62.9733 43.693C63.2456 45.9664 63.3055 48.1349 63.1399 50.1291C62.8352 53.8049 61.7644 56.5424 60.1373 57.9274ZM54.8272 43.5467L49.0572 27.9207L56.692 25.1016C58.0445 27.4477 59.2578 30.044 60.2759 32.8012C61.2598 35.4658 62.0073 38.1328 62.5052 40.7116L54.8272 43.5467ZM59.5043 24.0631L68.532 20.7296C70.3858 22.8502 71.8927 25.3352 72.9249 28.1305C73.9217 30.8299 74.3955 33.597 74.3987 36.3199L65.315 39.6741C64.7886 37.0836 64.0293 34.4238 63.0517 31.7762C62.0399 29.036 60.8411 26.4401 59.5043 24.0631ZM66.2218 18.4283L57.942 21.4857C56.4933 19.2657 54.9222 17.2993 53.2739 15.6671C51.9963 14.4016 50.7119 13.3788 49.4446 12.6034C55.612 12.3073 61.6316 14.4456 66.2218 18.4283ZM36.0324 17.5558C35.5731 18.9688 35.2617 20.5809 35.1131 22.373C34.9211 24.6847 35.005 27.2003 35.3467 29.829L27.0668 32.8864C27.9671 26.8763 31.1526 21.339 36.0324 17.5558ZM34.7492 54.1148L43.1089 51.028C44.599 53.3446 46.2236 55.3906 47.9287 57.0799C49.2063 58.3454 50.4907 59.3683 51.758 60.1437C45.4863 60.4445 39.3682 58.2278 34.7492 54.1148ZM65.1702 55.1912C65.6295 53.7782 65.9409 52.1661 66.0895 50.374C66.2875 47.982 66.1926 45.3711 65.8196 42.642L74.1792 39.5552C73.3417 45.683 70.1324 51.3438 65.1702 55.1912Z" stroke="#2196F3"/>
</g>
<path d="M153.209 19.544L143.513 53H138.617L130.841 26.072L122.777 53L117.929 53.048L108.569 19.544H113.225L120.521 47.912L128.585 19.544H133.481L141.161 47.816L148.505 19.544H153.209ZM181.989 38.84C181.989 39.672 181.941 40.552 181.845 41.48H160.821C160.981 44.072 161.861 46.104 163.461 47.576C165.093 49.016 167.061 49.736 169.365 49.736C171.253 49.736 172.821 49.304 174.069 48.44C175.349 47.544 176.245 46.36 176.757 44.888H181.461C180.757 47.416 179.349 49.48 177.237 51.08C175.125 52.648 172.501 53.432 169.365 53.432C166.869 53.432 164.629 52.872 162.645 51.752C160.693 50.632 159.157 49.048 158.037 47C156.917 44.92 156.357 42.52 156.357 39.8C156.357 37.08 156.901 34.696 157.989 32.648C159.077 30.6 160.597 29.032 162.549 27.944C164.533 26.824 166.805 26.264 169.365 26.264C171.861 26.264 174.069 26.808 175.989 27.896C177.909 28.984 179.381 30.488 180.405 32.408C181.461 34.296 181.989 36.44 181.989 38.84ZM177.477 37.928C177.477 36.264 177.109 34.84 176.373 33.656C175.637 32.44 174.629 31.528 173.349 30.92C172.101 30.28 170.709 29.96 169.173 29.96C166.965 29.96 165.077 30.664 163.509 32.072C161.973 33.48 161.093 35.432 160.869 37.928H177.477ZM192.123 31.592C193.019 30.024 194.331 28.744 196.059 27.752C197.787 26.76 199.755 26.264 201.963 26.264C204.331 26.264 206.459 26.824 208.347 27.944C210.235 29.064 211.723 30.648 212.811 32.696C213.899 34.712 214.443 37.064 214.443 39.752C214.443 42.408 213.899 44.776 212.811 46.856C211.723 48.936 210.219 50.552 208.299 51.704C206.411 52.856 204.299 53.432 201.963 53.432C199.691 53.432 197.691 52.936 195.963 51.944C194.267 50.952 192.987 49.688 192.123 48.152V53H187.755V17.48H192.123V31.592ZM209.979 39.752C209.979 37.768 209.579 36.04 208.779 34.568C207.979 33.096 206.891 31.976 205.515 31.208C204.171 30.44 202.683 30.056 201.051 30.056C199.451 30.056 197.963 30.456 196.587 31.256C195.243 32.024 194.155 33.16 193.323 34.664C192.523 36.136 192.123 37.848 192.123 39.8C192.123 41.784 192.523 43.528 193.323 45.032C194.155 46.504 195.243 47.64 196.587 48.44C197.963 49.208 199.451 49.592 201.051 49.592C202.683 49.592 204.171 49.208 205.515 48.44C206.891 47.64 207.979 46.504 208.779 45.032C209.579 43.528 209.979 41.768 209.979 39.752Z" fill="white"/>
<defs>
<linearGradient id="paint0_linear_511_59" x1="0" y1="36" x2="230" y2="36" gradientUnits="userSpaceOnUse">
<stop stop-color="#0B83FA"/>
<stop offset="1" stop-color="#4041FF"/>
</linearGradient>
</defs>
</svg>
